<svg xmlns="http://www.w3.org/2000/svg" xmlns:xlink="http://www.w3.org/1999/xlink" version="1.1" x="0px" y="0px" viewBox="0 0 100 125" enable-background="new 0 0 100 100" xml:space="preserve"><path d="M50.001,12.333c-20.77,0-37.667,16.897-37.667,37.667s16.897,37.667,37.667,37.667S87.668,70.77,87.668,50  S70.771,12.333,50.001,12.333z M85.668,50c0,9.474-3.72,18.09-9.768,24.484L62.828,61.412V50.665c0-6.562-0.527-8.427-3.762-13.306  c-2.273-3.43-2.547-6.903-2.559-8.237c-0.002-0.171-0.034-0.333-0.079-0.49c0.535-0.461,0.881-1.135,0.881-1.894  c0-1.384-1.126-2.51-2.511-2.51h-9.6c-1.385,0-2.511,1.126-2.511,2.51c0,0.76,0.346,1.434,0.881,1.894  c-0.045,0.157-0.077,0.32-0.079,0.491c-0.012,1.334-0.285,4.807-2.558,8.236c-0.309,0.465-0.585,0.897-0.846,1.314L25.517,24.102  c6.394-6.048,15.01-9.768,24.485-9.768C69.668,14.333,85.668,30.333,85.668,50z M40.531,41.944L52.767,54.18  c-0.638,0.103-1.457,0.124-2.533,0.128h-0.469c-0.022,0-0.045,0-0.067,0c-2.942,0-3.943-0.149-4.46-1.793  c-0.165-0.526-0.726-0.822-1.254-0.654c-0.526,0.166-0.819,0.727-0.654,1.254c0.344,1.094,0.883,1.808,1.552,2.28v5.022  c0,2.822,2.296,5.119,5.118,5.119s5.118-2.296,5.118-5.119V56.53l5.71,5.71v9.167c0,0.431-0.269,0.811-0.668,0.944  c-1.587,0.531-5.016,1.421-10.16,1.421c-5.142,0-8.568-0.89-10.154-1.421c-0.399-0.134-0.668-0.513-0.668-0.945l-0.006-20.742  C39.172,46.348,39.379,44.324,40.531,41.944z M50,59.595c-1.227,0-2.257,0.262-3.118,0.732v-4.169  c0.897,0.149,1.881,0.151,2.885,0.151h0.467c0.07,0,0.141,0,0.211,0c0.932,0,1.84-0.012,2.674-0.15v4.167  C52.258,59.857,51.23,59.595,50,59.595z M52.492,62.271c-0.569,0.763-1.47,1.264-2.492,1.264c-1.021,0-1.921-0.5-2.49-1.261  c0.607-0.444,1.435-0.679,2.49-0.679C51.06,61.595,51.888,61.829,52.492,62.271z M55.966,54.55c0.282-0.387,0.522-0.855,0.704-1.435  c0.165-0.527-0.128-1.088-0.654-1.254c-0.532-0.168-1.09,0.128-1.254,0.654c-0.07,0.223-0.153,0.415-0.245,0.586L41.539,40.124  c0.313-0.512,0.664-1.058,1.062-1.66c0.497-0.751,0.893-1.497,1.236-2.23h12.325c0.344,0.734,0.739,1.48,1.237,2.231  c3.012,4.544,3.429,6.026,3.429,12.201v8.747L55.966,54.55z M45.491,29.248h9.018c0.019,1.154,0.192,2.944,0.855,4.985H44.637  C45.3,32.192,45.472,30.401,45.491,29.248z M44.689,26.737c0-0.281,0.229-0.51,0.511-0.51h9.6c0.281,0,0.511,0.229,0.511,0.51  c0,0.282-0.229,0.511-0.511,0.511h-0.19h-9.219H45.2C44.919,27.248,44.689,27.019,44.689,26.737z M14.335,50  c0-9.474,3.72-18.091,9.768-24.484l14.942,14.942c-1.565,2.945-1.873,5.222-1.873,10.208l0.006,20.742  c0,1.292,0.817,2.434,2.033,2.841c1.701,0.569,5.364,1.524,10.789,1.524c5.428,0,9.093-0.956,10.795-1.525  c1.216-0.406,2.033-1.548,2.033-2.841V64.24l11.658,11.658c-6.394,6.048-15.01,9.769-24.485,9.769  C30.335,85.667,14.335,69.667,14.335,50z"/><text x="0" y="115" fill="#000000" font-size="5px" font-weight="bold" font-family="'Helvetica Neue', Helvetica, Arial-Unicode, Arial, Sans-serif">Created by Olguioo</text><text x="0" y="120" fill="#000000" font-size="5px" font-weight="bold" font-family="'Helvetica Neue', Helvetica, Arial-Unicode, Arial, Sans-serif">from the Noun Project</text></svg>