<svg xmlns="http://www.w3.org/2000/svg" xmlns:xlink="http://www.w3.org/1999/xlink" version="1.1" x="0px" y="0px" viewBox="0 0 100 125" enable-background="new 0 0 100 100" xml:space="preserve"><path d="M74.9,44.5c-0.1-0.1-3.4-1.4-7.8-1.4c-3.7,0-7.1,1-9.9,2.9c-2,1.3-3.4,3.4-3.9,5.7c-0.4,2.2-0.1,4.3,1,6.2  c-0.9,1.1-1.8,2.2-2.4,3.6c-0.4-1.3-1-2.9-1.9-4.4c3.7-4.7,3.6-11.5-0.5-16.1c-6.9-7.7-17.1-8.6-21.1-8.6c-1.5,0-2.4,0.1-2.4,0.1  c-0.4,0-0.8,0.3-0.9,0.7c-0.1,0.6-3.5,14.2,5.6,24.4c2.4,2.7,5.8,4.2,9.4,4.2c3.1,0,6-1.1,8.3-3.2c0.1-0.1,0.1-0.1,0.2-0.2  c2.2,4,1.9,7.5,1.9,7.8c0,0,0,0,0,0c-0.1,0.5,0.4,1,0.9,1.1c0,0,0.1,0,0.1,0c0.5,0,0.9-0.4,1-0.9c0,0,0,0,0,0c0.3-2.8,1.5-5.1,3-6.9  c2.2,2.6,4.5,3.2,6.3,3.2c2.5,0,4.6-1.2,5.4-1.7c7.9-5.2,8.3-15.2,8.3-15.7C75.6,45,75.3,44.7,74.9,44.5z M47.1,57.3  c-1.9,1.7-4.4,2.7-7,2.7c-3,0-5.9-1.3-7.9-3.6c-7.2-8.2-5.8-19-5.3-21.9c0.4,0,0.9,0,1.5,0c3.8,0,13.3,0.8,19.6,7.9  c3.3,3.7,3.5,9.1,0.8,13c-1.8-2.5-4.6-4.9-8.6-6.9c-0.5-0.2-1.1,0-1.3,0.5s0,1.1,0.5,1.3c4,1.9,6.5,4.3,8.2,6.7  C47.4,57,47.3,57.2,47.1,57.3z M66.1,59.5c-0.6,0.4-2.3,1.4-4.3,1.4c-1.9,0-3.5-0.9-4.9-2.7c2.7-2.6,5.7-4,5.8-4  c0.5-0.2,0.7-0.8,0.5-1.3c-0.2-0.5-0.8-0.7-1.3-0.5c-0.2,0.1-3.2,1.4-6,4.1c-0.6-1.3-0.8-2.8-0.5-4.3c0.4-1.9,1.5-3.4,3-4.5  c2.5-1.7,5.5-2.5,8.8-2.5c2.8,0,5.2,0.6,6.3,1C73.3,48.4,72,55.6,66.1,59.5z"/><text x="0" y="115" fill="#000000" font-size="5px" font-weight="bold" font-family="'Helvetica Neue', Helvetica, Arial-Unicode, Arial, Sans-serif">Created by Olguioo</text><text x="0" y="120" fill="#000000" font-size="5px" font-weight="bold" font-family="'Helvetica Neue', Helvetica, Arial-Unicode, Arial, Sans-serif">from the Noun Project</text></svg>