<svg xmlns="http://www.w3.org/2000/svg" xmlns:xlink="http://www.w3.org/1999/xlink" version="1.1" x="0px" y="0px" viewBox="0 0 100 125" enable-background="new 0 0 100 100" xml:space="preserve"><path d="M30.9,56.7l-1.1,1.4c-0.4,0.4-0.3,1.1,0.1,1.4c0.2,0.2,0.4,0.2,0.6,0.2c0.3,0,0.6-0.1,0.8-0.4l1.1-1.4  c0.4-0.4,0.3-1.1-0.1-1.4C31.9,56.3,31.2,56.3,30.9,56.7z"/><path d="M34.6,57.6l-1,0.6c-0.5,0.3-0.6,0.9-0.4,1.4c0.2,0.3,0.5,0.5,0.9,0.5c0.2,0,0.3,0,0.5-0.1l1-0.6c0.5-0.3,0.6-0.9,0.4-1.4  S35.1,57.3,34.6,57.6z"/><path d="M54.6,34l-1.7,1c-0.5,0.3-0.6,0.9-0.4,1.4c0.2,0.3,0.5,0.5,0.9,0.5c0.2,0,0.3,0,0.5-0.1l1.7-1c0.5-0.3,0.6-0.9,0.4-1.4  C55.7,33.9,55.1,33.8,54.6,34z"/><path d="M58.6,37.3l0.7-1.5c0.2-0.5,0-1.1-0.5-1.3c-0.5-0.2-1.1,0-1.3,0.5l-0.7,1.5c-0.2,0.5,0,1.1,0.5,1.3c0.1,0.1,0.3,0.1,0.4,0.1  C58.1,37.9,58.5,37.7,58.6,37.3z"/><path d="M50,12.3c-20.8,0-37.7,16.9-37.7,37.7S29.2,87.7,50,87.7S87.7,70.8,87.7,50S70.8,12.3,50,12.3z M85.7,50  c0,9.5-3.7,18.1-9.8,24.5l-8.4-8.4c2.7-0.6,4.4-1.7,5.4-2.4c1.3-1,2.1-2.4,2.2-3.8c0.1-1.2-0.4-2.4-1.3-3.3  c-0.1-0.1-2.6-2.5-7.9-2.5c-1.5,0-3,0.2-4.6,0.5c-1.5,0.3-2.8,0.8-3.9,1.3l-2.7-2.7c9-5.7,10.1-13,10.2-13.9  c0.2-0.8,1.6-7.7-3.1-10.6c-1.3-0.8-2.6-1.2-3.8-1.2c-2,0-3.1,1.2-3.6,1.7c-8.2,3.7-11.5,7.7-12.8,11.1L25.5,24.1  c6.4-6,15-9.8,24.5-9.8C69.7,14.3,85.7,30.3,85.7,50z M58.9,57.5c0.8-0.3,1.7-0.6,2.8-0.9c1.4-0.3,2.8-0.5,4.1-0.5  c4.4,0,6.4,1.9,6.5,1.9c0.5,0.5,0.7,1.1,0.7,1.7c-0.1,0.8-0.6,1.7-1.4,2.3c-0.8,0.6-2.6,1.7-5.9,2.3L58.9,57.5z M63.2,64.6  c-0.3,0-0.6,0-0.9,0c-0.6,0-1.3,0-2-0.1c-3.8-0.3-5.7-2-6.4-2.7c0.2-0.7,1-2.1,3.1-3.4L63.2,64.6z M42.9,46c0-0.5,0-1.1,0-1.7  l8.6,8.6c-0.4,0.2-0.8,0.4-1.3,0.6c-0.3,0.1-1.3,0.6-1.6,1.8c0,0.1,0,0.2-0.1,0.4c-0.7,5.1-4.2,8.5-10.4,10.2  c-1.4,0.4-2.7,0.6-3.8,0.6C27.1,66.5,27,59,27,59c0-0.9,0.2-8.6,11.5-9l0.3,0c0.2,0,0.4,0,0.6,0c0.2,0,0.4,0,0.5,0  c0.8,0,1.6-0.1,2.2-0.7c0.6-0.6,0.9-1.6,0.8-3.1L42.9,46z M43.3,41.9c0.9-3.2,3.7-7.2,12.3-10.9c0.2-0.1,0.3-0.2,0.4-0.4  c0,0,0.7-1,2.1-1c0.8,0,1.7,0.3,2.8,0.9c3.7,2.3,2.2,8.5,2.2,8.5c0,0,0,0.1,0,0.1c0,0.1-0.8,7.3-9.7,12.7L43.3,41.9z M14.3,50  c0-9.5,3.7-18.1,9.8-24.5l17,17c-0.3,1.4-0.2,2.6-0.2,3.6l0,0.1c0,1.3-0.2,1.6-0.3,1.6C40.5,48,40,48,39.8,48c-0.2,0-0.3,0-0.5,0  c-0.3,0-0.6,0-1,0C27.7,48.3,24.9,55.1,25,59c0,2.6,1.8,9.5,9.4,9.5c1.3,0,2.8-0.2,4.3-0.6c4.9-1.3,10.8-4.4,11.9-11.8  c0-0.1,0-0.2,0-0.3c0.1-0.3,0.2-0.4,0.3-0.4c0,0,0.1,0,0.1-0.1c0.7-0.3,1.4-0.7,2-1l2.6,2.6c-3.2,2.2-3.7,4.8-3.7,4.9  c0,0.2,0,0.5,0.2,0.7c0.1,0.1,2.4,3.5,8.1,3.9c0.7,0.1,1.5,0.1,2.2,0.1c0,0,0,0,0,0c1,0,1.9-0.1,2.7-0.2l9.4,9.4  c-6.4,6-15,9.8-24.5,9.8C30.3,85.7,14.3,69.7,14.3,50z"/><text x="0" y="115" fill="#000000" font-size="5px" font-weight="bold" font-family="'Helvetica Neue', Helvetica, Arial-Unicode, Arial, Sans-serif">Created by Olguioo</text><text x="0" y="120" fill="#000000" font-size="5px" font-weight="bold" font-family="'Helvetica Neue', Helvetica, Arial-Unicode, Arial, Sans-serif">from the Noun Project</text></svg>